<mxfile host="app.diagrams.net" modified="2021-03-27T13:40:49.566Z" agent="5.0 (Windows NT 10.0; Win64; x64) AppleWebKit/537.36 (KHTML, like Gecko) Chrome/89.0.4389.90 Safari/537.36" etag="l5LUkOuc4H52bjIhVkNb" version="14.5.3" type="github">
  <diagram id="PeihX46xii7vrZ0zxFL6" name="Page-1">
    <mxGraphModel dx="1312" dy="771" grid="1" gridSize="10" guides="1" tooltips="1" connect="1" arrows="1" fold="1" page="1" pageScale="1" pageWidth="850" pageHeight="1100" math="0" shadow="0">
      <root>
        <mxCell id="0" />
        <mxCell id="1" parent="0" />
        <mxCell id="4P3mimddP13uZpKBdVPl-3" value="&lt;span style=&quot;font-size: 18px&quot;&gt;&lt;b&gt;2&lt;/b&gt;&lt;/span&gt;" style="ellipse;whiteSpace=wrap;html=1;aspect=fixed;strokeWidth=4;" vertex="1" parent="1">
          <mxGeometry x="119" y="510" width="60" height="60" as="geometry" />
        </mxCell>
        <mxCell id="4P3mimddP13uZpKBdVPl-11" style="edgeStyle=orthogonalEdgeStyle;rounded=0;orthogonalLoop=1;jettySize=auto;html=1;entryX=0.5;entryY=0;entryDx=0;entryDy=0;strokeWidth=4;" edge="1" parent="1" source="4P3mimddP13uZpKBdVPl-4" target="4P3mimddP13uZpKBdVPl-3">
          <mxGeometry relative="1" as="geometry">
            <Array as="points">
              <mxPoint x="149" y="475" />
            </Array>
          </mxGeometry>
        </mxCell>
        <mxCell id="4P3mimddP13uZpKBdVPl-4" value="&lt;font style=&quot;font-size: 18px&quot;&gt;&lt;b&gt;1&lt;/b&gt;&lt;/font&gt;" style="ellipse;whiteSpace=wrap;html=1;aspect=fixed;strokeWidth=4;" vertex="1" parent="1">
          <mxGeometry x="120" y="380" width="59" height="59" as="geometry" />
        </mxCell>
        <mxCell id="4P3mimddP13uZpKBdVPl-5" value="&lt;font style=&quot;font-size: 18px&quot;&gt;&lt;b&gt;1&lt;/b&gt;&lt;/font&gt;" style="ellipse;whiteSpace=wrap;html=1;aspect=fixed;strokeWidth=4;" vertex="1" parent="1">
          <mxGeometry x="420" y="530" width="60" height="60" as="geometry" />
        </mxCell>
        <mxCell id="4P3mimddP13uZpKBdVPl-6" value="&lt;font style=&quot;font-size: 18px&quot;&gt;&lt;b&gt;1&lt;/b&gt;&lt;/font&gt;" style="ellipse;whiteSpace=wrap;html=1;aspect=fixed;strokeWidth=4;" vertex="1" parent="1">
          <mxGeometry x="310" y="660" width="60" height="60" as="geometry" />
        </mxCell>
        <mxCell id="4P3mimddP13uZpKBdVPl-7" value="&lt;font style=&quot;font-size: 18px&quot;&gt;&lt;b&gt;1&lt;/b&gt;&lt;/font&gt;" style="ellipse;whiteSpace=wrap;html=1;aspect=fixed;strokeWidth=4;" vertex="1" parent="1">
          <mxGeometry x="270" y="570" width="60" height="60" as="geometry" />
        </mxCell>
        <mxCell id="4P3mimddP13uZpKBdVPl-12" style="edgeStyle=orthogonalEdgeStyle;rounded=0;orthogonalLoop=1;jettySize=auto;html=1;entryX=0;entryY=0.5;entryDx=0;entryDy=0;strokeWidth=4;" edge="1" parent="1" source="4P3mimddP13uZpKBdVPl-8" target="4P3mimddP13uZpKBdVPl-4">
          <mxGeometry relative="1" as="geometry" />
        </mxCell>
        <mxCell id="4P3mimddP13uZpKBdVPl-8" value="&lt;font style=&quot;font-size: 18px&quot;&gt;&lt;b&gt;0&lt;/b&gt;&lt;/font&gt;" style="ellipse;whiteSpace=wrap;html=1;aspect=fixed;strokeWidth=4;" vertex="1" parent="1">
          <mxGeometry x="-10" y="379" width="60" height="60" as="geometry" />
        </mxCell>
        <mxCell id="4P3mimddP13uZpKBdVPl-9" value="&lt;font style=&quot;font-size: 18px&quot;&gt;&lt;b&gt;1&lt;/b&gt;&lt;/font&gt;" style="ellipse;whiteSpace=wrap;html=1;aspect=fixed;strokeWidth=4;" vertex="1" parent="1">
          <mxGeometry x="360" y="190" width="60" height="60" as="geometry" />
        </mxCell>
        <mxCell id="4P3mimddP13uZpKBdVPl-10" value="&lt;font style=&quot;font-size: 18px&quot;&gt;&lt;b&gt;1&lt;/b&gt;&lt;/font&gt;" style="ellipse;whiteSpace=wrap;html=1;aspect=fixed;strokeWidth=4;" vertex="1" parent="1">
          <mxGeometry x="210" y="150" width="60" height="60" as="geometry" />
        </mxCell>
        <mxCell id="4P3mimddP13uZpKBdVPl-13" value="&lt;b&gt;&lt;font style=&quot;font-size: 16px&quot;&gt;?a-zA-Z&lt;/font&gt;&lt;/b&gt;" style="text;html=1;align=center;verticalAlign=middle;resizable=0;points=[];autosize=1;" vertex="1" parent="1">
          <mxGeometry x="50" y="379" width="70" height="20" as="geometry" />
        </mxCell>
        <mxCell id="4P3mimddP13uZpKBdVPl-16" style="edgeStyle=orthogonalEdgeStyle;rounded=0;orthogonalLoop=1;jettySize=auto;html=1;entryX=1;entryY=0;entryDx=0;entryDy=0;strokeWidth=4;" edge="1" parent="1" source="4P3mimddP13uZpKBdVPl-4" target="4P3mimddP13uZpKBdVPl-4">
          <mxGeometry relative="1" as="geometry">
            <Array as="points">
              <mxPoint x="120" y="320" />
              <mxPoint x="220" y="320" />
              <mxPoint x="220" y="389" />
            </Array>
          </mxGeometry>
        </mxCell>
        <mxCell id="4P3mimddP13uZpKBdVPl-17" value="&lt;b&gt;&lt;font style=&quot;font-size: 16px&quot;&gt;!?0-9a-zA-Z&lt;/font&gt;&lt;/b&gt;" style="text;html=1;align=center;verticalAlign=middle;resizable=0;points=[];autosize=1;" vertex="1" parent="1">
          <mxGeometry x="120" y="340" width="100" height="20" as="geometry" />
        </mxCell>
        <mxCell id="4P3mimddP13uZpKBdVPl-19" value="&lt;b style=&quot;color: rgb(0 , 0 , 0) ; font-family: &amp;#34;helvetica&amp;#34; ; font-size: 12px ; font-style: normal ; letter-spacing: normal ; text-align: center ; text-indent: 0px ; text-transform: none ; word-spacing: 0px ; background-color: rgb(248 , 249 , 250)&quot;&gt;&lt;font style=&quot;font-size: 16px&quot;&gt;!0-9a-zA-Z&lt;/font&gt;&lt;/b&gt;" style="text;whiteSpace=wrap;html=1;" vertex="1" parent="1">
          <mxGeometry x="60" y="450" width="110" height="30" as="geometry" />
        </mxCell>
      </root>
    </mxGraphModel>
  </diagram>
</mxfile>
